<svg width="18" height="18" viewBox="0 0 18 18" fill="none" xmlns="http://www.w3.org/2000/svg">
    <path
        d="M9 2.46991C7.70849 2.46991 6.44598 2.85289 5.37213 3.57041C4.29828 4.28794 3.46131 5.30779 2.96707 6.50099C2.47283 7.69419 2.34351 9.00715 2.59548 10.2739C2.84744 11.5405 3.46936 12.7041 4.3826 13.6173C5.29583 14.5306 6.45937 15.1525 7.72606 15.4044C8.99276 15.6564 10.3057 15.5271 11.4989 15.0328C12.6921 14.5386 13.712 13.7016 14.4295 12.6278C15.147 11.5539 15.53 10.2914 15.53 8.99991C15.528 7.26866 14.8394 5.60888 13.6152 4.3847C12.391 3.16051 10.7313 2.47189 9 2.46991ZM11.2675 10.3849C11.3256 10.4428 11.3718 10.5115 11.4032 10.5872C11.4347 10.663 11.4509 10.7442 11.4509 10.8262C11.4509 10.9082 11.4347 10.9894 11.4032 11.0651C11.3718 11.1408 11.3256 11.2096 11.2675 11.2674C11.2102 11.326 11.1417 11.3726 11.0662 11.4043C10.9906 11.4361 10.9095 11.4525 10.8275 11.4524C10.7452 11.4522 10.6637 11.4358 10.5878 11.404C10.5119 11.3723 10.4429 11.3259 10.385 11.2674L9 9.88241L7.615 11.2674C7.55706 11.3259 7.48814 11.3723 7.41221 11.404C7.33627 11.4358 7.25481 11.4522 7.1725 11.4524C7.09054 11.4525 7.00939 11.4361 6.93382 11.4043C6.85826 11.3726 6.78981 11.326 6.7325 11.2674C6.67438 11.2096 6.62825 11.1408 6.59678 11.0651C6.5653 10.9894 6.5491 10.9082 6.5491 10.8262C6.5491 10.7442 6.5653 10.663 6.59678 10.5872C6.62825 10.5115 6.67438 10.4428 6.7325 10.3849L8.115 8.99991L6.7325 7.61491C6.61848 7.4972 6.55525 7.33941 6.55644 7.17553C6.55762 7.01164 6.62313 6.85479 6.73885 6.73874C6.85457 6.62269 7.01125 6.55674 7.17512 6.55509C7.339 6.55343 7.49697 6.61622 7.615 6.72991L9 8.11491L10.385 6.72991C10.503 6.61622 10.661 6.55343 10.8249 6.55509C10.9888 6.55674 11.1454 6.62269 11.2612 6.73874C11.3769 6.85479 11.4424 7.01164 11.4436 7.17553C11.4448 7.33941 11.3815 7.4972 11.2675 7.61491L9.885 8.99991L11.2675 10.3849Z"
        fill="#F04847"
    />
</svg>
